<svg xmlns="http://www.w3.org/2000/svg" xmlns:xlink="http://www.w3.org/1999/xlink" viewBox="0 0 1920 1080"><defs><style>.cls-1{fill:none;}.cls-2{isolation:isolate;}.cls-3{fill:#191919;}.cls-4{clip-path:url(#clip-path);}.cls-5{fill:#39ff14;}.cls-6{mix-blend-mode:screen;}.cls-7{fill:#0e20ea;}.cls-8{fill:#fff;}</style><clipPath id="clip-path"><rect class="cls-1" x="-0.56" y="-0.44" width="1922.26" height="1080"/></clipPath></defs><g class="cls-2"><g id="Layer_1" data-name="Layer 1"><rect class="cls-3" x="-1.69" y="-0.44" width="1922.26" height="1080"/><g class="cls-4"><path class="cls-5" d="M1418.87,819.5c-36.21-160.25-179.24-279.94-350.29-279.94-198.41,0-359.25,161-359.25,359.58s160.84,359.58,359.25,359.58c171.05,0,314.08-119.7,350.29-280v280h125.24V539.56H1418.87Zm-350.29,313.87c-129,0-234-105.08-234-234.23s105-234.23,234-234.23,234,105.07,234,234.23S1197.61,1133.37,1068.58,1133.37Z"/><path class="cls-5" d="M1729.64,819.57v-280H1604.4v719.16h125.24V898.23H1846c.5-128.74,105.27-233.32,234-233.32V539.56C1908.86,539.56,1765.83,659.29,1729.64,819.57Z"/><polygon class="cls-5" points="667.14 539.56 317.09 1141.1 317.09 539.71 317.18 539.56 317.09 539.56 191.94 539.56 191.85 539.56 178.78 539.71 -171.17 1141.1 -171.17 539.56 -296.41 539.56 -296.41 1258.72 -239.62 1258.72 -171.17 1258.72 -101.31 1258.72 191.85 754.93 191.85 1258.72 248.64 1258.72 317.09 1258.72 386.95 1258.72 805.44 539.56 667.14 539.56"/><g class="cls-6"><path class="cls-7" d="M1340.37,819.5c-36.21-160.25-179.24-279.94-350.3-279.94-198.41,0-359.25,161-359.25,359.58s160.84,359.58,359.25,359.58c171.06,0,314.09-119.7,350.3-280v280h125.24V539.56H1340.37ZM990.08,1133.37c-129,0-234-105.08-234-234.23s105-234.23,234-234.23,234,105.07,234,234.23S1119.11,1133.37,990.08,1133.37Z"/><path class="cls-7" d="M1651.14,819.57v-280H1525.9v719.16h125.24V898.23h116.31c.49-128.74,105.27-233.32,234-233.32V539.56C1830.36,539.56,1687.33,659.29,1651.14,819.57Z"/><polygon class="cls-7" points="588.63 539.56 238.59 1141.1 238.59 539.71 238.68 539.56 238.59 539.56 113.44 539.56 113.35 539.56 100.28 539.71 -249.67 1141.1 -249.67 539.56 -374.91 539.56 -374.91 1258.72 -318.12 1258.72 -249.67 1258.72 -179.81 1258.72 113.35 754.93 113.35 1258.72 170.14 1258.72 238.59 1258.72 308.45 1258.72 726.94 539.56 588.63 539.56"/></g><path class="cls-5" d="M631.21,100.34C595-59.91,452-179.61,280.91-179.61,82.5-179.61-78.34-18.62-78.34,180S82.5,539.56,280.91,539.56c171.06,0,314.08-119.7,350.3-279.95V539.56H756.45V-179.61H631.21ZM280.91,414.2c-129,0-234-105.07-234-234.23s105-234.23,234-234.23,234,105.08,234,234.23S409.94,414.2,280.91,414.2Z"/><path class="cls-5" d="M1438.28,180c0-129.15,105-234.23,234-234.23V-179.61C1473.88-179.61,1313-18.62,1313,180s160.84,359.59,359.25,359.59V414.2C1543.27,414.2,1438.28,309.13,1438.28,180Z"/><path class="cls-5" d="M942,100.41v-280H816.74V539.56H942V179.07h116.31c.49-128.74,105.26-233.33,234-233.33V-179.61C1121.19-179.61,978.16-59.88,942,100.41Z"/><polygon class="cls-5" points="-120.53 -179.61 -470.58 421.93 -470.58 -179.46 -470.48 -179.61 -470.58 -179.61 -595.72 -179.61 -595.82 -179.61 -608.88 -179.46 -958.84 421.93 -958.84 -179.61 -1084.08 -179.61 -1084.08 539.56 -1027.28 539.56 -958.84 539.56 -888.98 539.56 -595.82 35.77 -595.82 539.56 -539.02 539.56 -470.58 539.56 -400.71 539.56 17.78 -179.61 -120.53 -179.61"/><g class="cls-6"><path class="cls-7" d="M552.7,100.34c-36.21-160.25-179.24-280-350.29-280C4-179.61-156.84-18.62-156.84,180S4,539.56,202.41,539.56c171,0,314.08-119.7,350.29-279.95V539.56H677.94V-179.61H552.7ZM202.41,414.2c-129,0-234-105.07-234-234.23s105-234.23,234-234.23,234,105.08,234,234.23S331.44,414.2,202.41,414.2Z"/><path class="cls-7" d="M1359.78,180c0-129.15,105-234.23,234-234.23V-179.61c-198.41,0-359.25,161-359.25,359.58s160.84,359.59,359.25,359.59V414.2C1464.76,414.2,1359.78,309.13,1359.78,180Z"/><path class="cls-7" d="M863.47,100.41v-280H738.23V539.56H863.47V179.07H979.78c.5-128.74,105.27-233.33,234-233.33V-179.61C1042.69-179.61,899.66-59.88,863.47,100.41Z"/></g><polygon class="cls-5" points="2635.47 -179.61 2285.42 421.93 2285.42 -179.46 2285.52 -179.61 2285.42 -179.61 2160.28 -179.61 2160.18 -179.61 2147.12 -179.46 1797.16 421.93 1797.16 -179.61 1671.92 -179.61 1671.92 539.56 1728.72 539.56 1797.16 539.56 1867.02 539.56 2160.18 35.77 2160.18 539.56 2216.98 539.56 2285.42 539.56 2355.28 539.56 2773.78 -179.61 2635.47 -179.61"/><g class="cls-6"><polygon class="cls-7" points="2556.97 -179.61 2206.92 421.93 2206.92 -179.46 2207.01 -179.61 2206.92 -179.61 2081.77 -179.61 2081.68 -179.61 2068.61 -179.46 1718.66 421.93 1718.66 -179.61 1593.42 -179.61 1593.42 539.56 1650.21 539.56 1718.66 539.56 1788.52 539.56 2081.68 35.77 2081.68 539.56 2138.47 539.56 2206.92 539.56 2276.78 539.56 2695.28 -179.61 2556.97 -179.61"/></g></g><path class="cls-8" d="M1015,397l-5,25.93h-3.26l5-25.93Z"/><path class="cls-8" d="M1032.1,410.11l-2.5,12.8h-2.9l2.4-12.29c.47-2.4-.22-4.17-3-4.17a6.47,6.47,0,0,0-6.56,5l-2.25,11.42h-2.9l3.63-18.49h2.9l-.48,2.21.08-.07a8.79,8.79,0,0,1,6.49-2.65C1030.4,403.91,1032.94,405.87,1032.1,410.11Z"/><path class="cls-8" d="M1013.76,437.17l-2.18,11.24c-.43,2.1.62,2.36,3.12,2.17l-.32,2.58a11,11,0,0,1-2.14.18c-2.54,0-4.32-1.09-3.59-4.86l2.21-11.31h-2.72l.51-2.54h2.72l1.19-6.16h2.9l-1.19,6.16h3.62l-.51,2.54Z"/><path class="cls-8" d="M1034.64,440.32l-2.5,12.8h-2.9l2.39-12.29c.48-2.39-.21-4.17-3-4.17a6.48,6.48,0,0,0-6.56,5l-2.25,11.42h-2.9l5-25.92h2.9l-1.89,9.64.08-.07a8.81,8.81,0,0,1,6.49-2.65C1032.94,434.12,1035.48,436.08,1034.64,440.32Z"/><path class="cls-8" d="M1050.27,447.32h3.08a9.91,9.91,0,0,1-9.42,6.31c-5.7,0-8.41-4.24-7.25-10.15,1.19-6.06,5.25-9.36,10.58-9.36,5.88,0,8,4.07,6.71,10.63h-14.61c-.65,3.33.69,6.34,4.64,6.34A6.79,6.79,0,0,0,1050.27,447.32Zm-10.4-5.11h11.74c.58-3.19-.9-5.55-4.53-5.55A7.4,7.4,0,0,0,1039.87,442.21Z"/><path class="cls-8" d="M1010.17,464.81l3.77,14.07h.07l3.77-14.07h3.74l3.8,14.07h.08l3.73-14.07h4l-5.66,18.53h-3.84l-4-14.14h-.07l-4,14.14h-3.8l-5.69-18.53Z"/><path class="cls-8" d="M1041.42,467.31c-3,0-4.17.95-4.35,3.34h-3.69c.18-3.55,2.46-6.35,8-6.35,4.1,0,7.15,1.56,7.15,6.49v8.81c0,1.31.29,2,1.77,1.85v1.82a5.8,5.8,0,0,1-2.21.39c-2,0-3-.72-3.33-2.53h-.08a7.22,7.22,0,0,1-6.12,2.75c-3.77,0-6.09-2.17-6.09-5.29,0-4.06,3-5.33,7.65-6.24,2.86-.54,4.6-.9,4.6-2.68C1044.76,468.33,1044,467.31,1041.42,467.31Zm3.34,9v-2.79a12.74,12.74,0,0,1-3.88,1.24c-3.15.68-4.53,1.59-4.53,3.48,0,1.7,1,2.64,3.08,2.64C1042.58,480.87,1044.76,479.31,1044.76,476.3Z"/><path class="cls-8" d="M1062.13,464.48v3.59h-.08c-3.66-.61-6.59,1.85-6.59,5.81v9.46h-3.81V464.81h3.81v3.48h.07c1-2.32,2.5-3.91,4.93-3.91A12.29,12.29,0,0,1,1062.13,464.48Z"/><path class="cls-8" d="M1071.19,467.42c-3.73,0-5.33,3.19-5.33,6.67s1.56,6.67,5.33,6.67a4.3,4.3,0,0,0,4.61-4.31h3.8c-.29,4.28-3.59,7.43-8.41,7.43-5.54,0-9.13-4-9.13-9.79s3.59-9.79,9.1-9.79c4.82,0,8,3.09,8.44,7.29h-3.8A4.31,4.31,0,0,0,1071.19,467.42Z"/><path class="cls-8" d="M1096.61,478.12c0,3.55-3,5.76-7.54,5.76-6,0-8.56-2.79-8.74-6.71h3.7c.18,2,1,3.7,5,3.7,2.64,0,3.77-1.3,3.77-2.46,0-2.32-2.22-2.5-4.94-3.16-2.93-.69-6.92-1.27-6.92-5.47,0-3,2.68-5.48,7.32-5.48,5,0,7.44,2.72,7.69,5.95h-3.7c-.25-1.45-1-2.94-4-2.94-2.28,0-3.52.87-3.52,2.18,0,1.88,2.07,2,4.75,2.64C1092.91,472.93,1096.61,473.69,1096.61,478.12Z"/></g></g></svg>